<svg id="Layer_1" data-name="Layer 1" xmlns="http://www.w3.org/2000/svg" viewBox="0 0 12.1 12.05"><title>bb-logo</title><path d="M0,9.44A2,2,0,0,1,0,9s0,0,0-.08a.43.43,0,0,0,0-.16.89.89,0,0,1,0-.43,2.35,2.35,0,0,0,.08-.7,1,1,0,0,0,0-.25.61.61,0,0,1,0-.3,8.46,8.46,0,0,0,.16-.85c0-.19,0-.37.07-.56a2,2,0,0,0,0-.35,1,1,0,0,1,0-.42.88.88,0,0,0,.06-.28c0-.25,0-.51,0-.77a4.71,4.71,0,0,0,0-.53c0-.27,0-.53,0-.8,0-.1,0-.2,0-.31a2.3,2.3,0,0,1,0-.45,1.37,1.37,0,0,0,0-.19.37.37,0,0,1,.1-.25.83.83,0,0,1,.5-.27.58.58,0,0,1,.5.14.68.68,0,0,1,.21.34A1.78,1.78,0,0,1,2,2c0,.1,0,.2,0,.29a.31.31,0,0,1,0,.1A1.7,1.7,0,0,0,2,2.94c0,.22,0,.45.06.67l0,.27a2.83,2.83,0,0,1,0,.29,2,2,0,0,0,0,.35c0,.16,0,.31.06.47a.45.45,0,0,1,0,.28.66.66,0,0,0,0,.31s0,.08,0,.12a.13.13,0,0,0,0,.09.47.47,0,0,0,.17.14.19.19,0,0,0,.18,0l.45-.12a2.91,2.91,0,0,1,.83-.06,1.61,1.61,0,0,1,.44.06c.13,0,.27,0,.4.07a1.06,1.06,0,0,1,.71.49,2.79,2.79,0,0,0,.34.43l.12.1a.14.14,0,0,0,.19,0A.42.42,0,0,0,6,6.64c.06-.23.1-.47.17-.7a.76.76,0,0,0,.06-.25c0-.08,0-.15,0-.22s0-.19,0-.29a.56.56,0,0,1,0-.25.26.26,0,0,0,0-.15,1.69,1.69,0,0,1,.06-.55,2.63,2.63,0,0,0,.09-.3.89.89,0,0,0,0-.43.45.45,0,0,1,0-.2.16.16,0,0,0,0-.15.77.77,0,0,1,0-.26.82.82,0,0,0,0-.35.34.34,0,0,1,0-.1,1.37,1.37,0,0,0,0-.57.56.56,0,0,1,.13-.54,1,1,0,0,1,.36-.26L7.06,1a.41.41,0,0,1,.34.09.6.6,0,0,1,.22.32,2.7,2.7,0,0,1,.08.41,1.35,1.35,0,0,1,0,.4,1.06,1.06,0,0,0,0,.53.41.41,0,0,1,0,.29.22.22,0,0,0,0,.16.15.15,0,0,1,0,.13,1.4,1.4,0,0,0,0,.41c0,.18,0,.36,0,.53s0,.22,0,.32a2.44,2.44,0,0,0,0,.38,5.46,5.46,0,0,1,0,.58,1.28,1.28,0,0,0,0,.39.33.33,0,0,0,.08.19A.27.27,0,0,0,8,6.23a1.74,1.74,0,0,0,.45-.11A2.29,2.29,0,0,1,8.78,6H9l.38,0a3.69,3.69,0,0,1,.74.12c.12,0,.25.06.37.09a1.08,1.08,0,0,1,.5.28,4,4,0,0,1,.54.55,3.36,3.36,0,0,1,.45.86,1.11,1.11,0,0,0,.07.16.68.68,0,0,1,.06.59,1.49,1.49,0,0,1-.24.49c-.08.12-.17.24-.24.37a1.56,1.56,0,0,0-.17.47.71.71,0,0,1-.13.31.81.81,0,0,1-.16.16c-.18.14-.36.27-.55.39a1.69,1.69,0,0,1-.5.2l-.27.08a.86.86,0,0,1-.63-.05.29.29,0,0,0-.16,0A2.2,2.2,0,0,1,8.65,11a3.5,3.5,0,0,0-.45-.07,1.71,1.71,0,0,1-.49-.14,1.09,1.09,0,0,0-.24-.07.2.2,0,0,0-.19.07.78.78,0,0,0-.11.2s0,0,0,0a.46.46,0,0,1-.38.26.13.13,0,0,1-.08,0c-.15-.08-.31-.16-.45-.25l-.15-.1A.31.31,0,0,1,6,10.82c0-.12-.1-.23-.14-.35a.7.7,0,0,1-.05-.25.28.28,0,0,1,0-.09.14.14,0,0,0,0-.09,1.53,1.53,0,0,1-.09-.56,1.23,1.23,0,0,1,0-.2s0,0,0-.06a.07.07,0,0,0-.1-.05l0,0a5,5,0,0,1-.52.51,3.49,3.49,0,0,0-.45.49.75.75,0,0,0-.07.12.39.39,0,0,1-.19.17c-.18.07-.35.15-.54.21a1.26,1.26,0,0,1-.27,0,.18.18,0,0,0-.09,0,.27.27,0,0,1-.31,0h0a1.89,1.89,0,0,0-.33-.13,1.71,1.71,0,0,1-.56-.39.26.26,0,0,0-.11-.07.21.21,0,0,0-.17,0,.66.66,0,0,0-.24.17.67.67,0,0,1-.25.19,1.55,1.55,0,0,0-.22.12.51.51,0,0,1-.22.06.49.49,0,0,1-.17,0,.27.27,0,0,1-.21-.13l-.23-.28L.27,10.2A.58.58,0,0,1,0,9.8,2.17,2.17,0,0,1,0,9.44ZM10.66,8.19a.77.77,0,0,0,0-.25.28.28,0,0,0-.07-.17,2.79,2.79,0,0,1-.34-.43A.72.72,0,0,0,9.57,7H9.33a.62.62,0,0,0-.49.16,1.41,1.41,0,0,0-.24.32.44.44,0,0,0-.06.16.88.88,0,0,1,0,.15.78.78,0,0,0-.05.14,1.17,1.17,0,0,1-.14.3,1.09,1.09,0,0,0-.14.31A2.91,2.91,0,0,1,8,9a2.46,2.46,0,0,0-.09.29A.21.21,0,0,0,8,9.54l.1,0,.46.12a1.23,1.23,0,0,0,.39,0l.34,0a1.14,1.14,0,0,0,.25-.06.44.44,0,0,1,.15-.05.19.19,0,0,0,.16-.08,3,3,0,0,1,.25-.25A1.67,1.67,0,0,0,10.41,9,1.21,1.21,0,0,0,10.66,8.19ZM3.14,6.53h0a.51.51,0,0,0-.38.18L2.5,7a1.18,1.18,0,0,0-.25.45c0,.16-.1.31-.16.47A1.3,1.3,0,0,0,2,8.27a1.63,1.63,0,0,1-.08.43A.31.31,0,0,0,2,9.05a.54.54,0,0,0,.3.1l.37,0a.27.27,0,0,0,.15,0L3,9.08a.84.84,0,0,0,.29-.2,1.48,1.48,0,0,1,.3-.26,1.1,1.1,0,0,0,.35-.36,1.89,1.89,0,0,0,.3-.89A.45.45,0,0,0,4.07,7l-.22-.19A.91.91,0,0,0,3.14,6.53Z"/></svg>