<svg id="Layer_1" data-name="Layer 1" xmlns="http://www.w3.org/2000/svg" viewBox="0 0 64.06 64.57"><title>bb-logo</title><path d="M35.45,58.23a22.61,22.61,0,0,1-3.36-1.89,1.57,1.57,0,0,1-.61-.82c-.16-.55-.45-1.06-.66-1.59a3.66,3.66,0,0,1-.28-1.38,2.87,2.87,0,0,1,.07-.5.74.74,0,0,0,0-.44,8.9,8.9,0,0,1-.46-3,7.18,7.18,0,0,1,.1-1,.88.88,0,0,0,0-.28.35.35,0,0,0-.52-.26.62.62,0,0,0-.2.16,28,28,0,0,1-2.69,2.65,15.66,15.66,0,0,0-2.4,2.61c-.13.19-.25.39-.37.6a2,2,0,0,1-1,.9,26.38,26.38,0,0,1-2.84,1.09,6.91,6.91,0,0,1-1.43.25.7.7,0,0,0-.45.17,1.5,1.5,0,0,1-1.65.25s-.05,0-.07,0A9.89,9.89,0,0,0,14.92,55a8.38,8.38,0,0,1-3-2,1.44,1.44,0,0,0-.57-.37,1.2,1.2,0,0,0-.89.11,3.15,3.15,0,0,0-1.24.93,3.63,3.63,0,0,1-1.33,1c-.39.2-.77.4-1.15.63a3.17,3.17,0,0,1-1.18.35,3,3,0,0,1-1,0,1.8,1.8,0,0,1-1.11-.79,12.27,12.27,0,0,0-1.64-2c-.21-.19-.44-.37-.66-.55a3.24,3.24,0,0,1-1-1.93,5.85,5.85,0,0,1-.1-1.1c0-.58,0-1.16,0-1.74a8.26,8.26,0,0,1,.19-1.65,2.32,2.32,0,0,0,0-.91,4.8,4.8,0,0,1,.15-2.13A12.47,12.47,0,0,0,.84,39a6.68,6.68,0,0,0-.15-1.27,3.14,3.14,0,0,1,.07-1.61,32.07,32.07,0,0,0,.86-4.45c.13-1,.26-1.94.37-2.92a9,9,0,0,0,0-1.87,5,5,0,0,1,.28-2.23,4.77,4.77,0,0,0,.27-1.45c0-1.34.16-2.68.26-4,.07-.94.13-1.88.16-2.83,0-1.4,0-2.79-.06-4.19,0-.54-.06-1.07,0-1.6a17.77,17.77,0,0,1,.27-2.41,6.67,6.67,0,0,0,.13-1,2,2,0,0,1,.53-1.3A4.31,4.31,0,0,1,6.43,4.4a3.15,3.15,0,0,1,2.67.78A3.9,3.9,0,0,1,10.15,7a11.13,11.13,0,0,1,.41,2.35c0,.52.07,1,.11,1.56a1.14,1.14,0,0,1-.06.48,8.37,8.37,0,0,0-.35,2.9c0,1.19.21,2.37.3,3.55,0,.48.11,1,.14,1.44a9.33,9.33,0,0,1-.1,1.49,11.18,11.18,0,0,0,0,1.83c.06.83.22,1.65.34,2.47a2.84,2.84,0,0,1-.16,1.5,3.49,3.49,0,0,0-.18,1.63,4.62,4.62,0,0,0,.07.65c.1.54.53.81.94,1.09a1.09,1.09,0,0,0,1,.08,20.82,20.82,0,0,1,2.46-.68A17.23,17.23,0,0,1,19.45,29a9.53,9.53,0,0,1,2.32.31c.69.2,1.41.24,2.11.39a5.73,5.73,0,0,1,3.74,2.56,12.25,12.25,0,0,0,1.75,2.25,4.36,4.36,0,0,0,.65.56.73.73,0,0,0,1,0,2.22,2.22,0,0,0,.75-1.27c.28-1.23.53-2.46.89-3.67A7.82,7.82,0,0,0,33,28.69c0-.37,0-.76.08-1.13s-.09-1-.07-1.5a3.28,3.28,0,0,1,.28-1.31,1.63,1.63,0,0,0,.13-.81,7.71,7.71,0,0,1,.37-3.09,15.25,15.25,0,0,0,.45-1.5,5,5,0,0,0,0-2.12,2.33,2.33,0,0,1,.08-1.05,1.31,1.31,0,0,0,0-.83A3.29,3.29,0,0,1,34.08,14a5.37,5.37,0,0,0-.15-1.83,1.57,1.57,0,0,1,0-.53,8.14,8.14,0,0,0-.22-3,2.91,2.91,0,0,1,.68-2.84,4.87,4.87,0,0,1,1.89-1.38,3.93,3.93,0,0,1,.87-.31,2.16,2.16,0,0,1,1.76.48A3,3,0,0,1,40,6.28a13,13,0,0,1,.43,2.13,7.87,7.87,0,0,1-.13,2.11,5.73,5.73,0,0,0,.08,2.82,2.27,2.27,0,0,1,0,1.52.94.94,0,0,0,.07.83.89.89,0,0,1,.1.66,7.42,7.42,0,0,0-.12,2.21c0,.92.18,1.84.17,2.77,0,.56-.08,1.11-.11,1.67s-.09,1.38-.08,2.08a22.78,22.78,0,0,1-.19,3,7.56,7.56,0,0,0,0,2.07,1.8,1.8,0,0,0,.4,1,1.46,1.46,0,0,0,1.27.43A8.25,8.25,0,0,0,44.2,31a15.06,15.06,0,0,1,2-.6,3.46,3.46,0,0,1,.91,0l2,.1a15.87,15.87,0,0,1,3.93.62c.63.19,1.29.32,1.93.48A6.13,6.13,0,0,1,57.62,33a21.78,21.78,0,0,1,2.77,2.91,16.57,16.57,0,0,1,2.39,4.49,4.48,4.48,0,0,0,.4.86,3.88,3.88,0,0,1,.37,2.89,7.07,7.07,0,0,1-1,2.28c-.42.65-.87,1.28-1.29,1.93a8.18,8.18,0,0,0-1.16,2.78A4.58,4.58,0,0,1,59.31,53a4.28,4.28,0,0,1-.78.81,27.89,27.89,0,0,1-3,2.11,8,8,0,0,1-2.5,1c-.47.1-.92.3-1.39.44a4.5,4.5,0,0,1-3.32-.27,1.9,1.9,0,0,0-.85-.17,10.63,10.63,0,0,1-2-.26,23.2,23.2,0,0,0-2.34-.36,9.69,9.69,0,0,1-2.63-.72,4.46,4.46,0,0,0-1.24-.38,1.1,1.1,0,0,0-1,.37,4.49,4.49,0,0,0-.68,1.23,2.19,2.19,0,0,1-.86,1,2.65,2.65,0,0,1-1,.38.45.45,0,0,0-.11,0ZM47.3,50c.41,0,1-.09,1.68-.16a4.64,4.64,0,0,0,1.36-.36,2.59,2.59,0,0,1,.77-.21,1.23,1.23,0,0,0,.86-.44c.4-.46.84-.87,1.27-1.3a14,14,0,0,0,1.29-1.38,6.51,6.51,0,0,0,1.39-5.61,1.54,1.54,0,0,0-.39-.89,14.76,14.76,0,0,1-1.8-2.29,3.83,3.83,0,0,0-3.44-1.82,11.71,11.71,0,0,1-1.19-.06,3.21,3.21,0,0,0-2.54.76,6.89,6.89,0,0,0-1.45,1.93,3.67,3.67,0,0,0-.27.87c-.1.45-.33.84-.46,1.28A6.42,6.42,0,0,1,43.59,42a4.68,4.68,0,0,0-.66,1.6,17.69,17.69,0,0,1-.86,2.64,7.91,7.91,0,0,0-.47,1.5A1.11,1.11,0,0,0,42.21,49a2.51,2.51,0,0,0,.56.22l1.74.45A10,10,0,0,0,47.3,50ZM16.5,33.13h-.12a2.78,2.78,0,0,0-2,1q-.66.78-1.29,1.59A6.6,6.6,0,0,0,11.81,38c-.23.84-.53,1.65-.82,2.47a6.5,6.5,0,0,0-.43,1.79,8.83,8.83,0,0,1-.42,2.27,1.61,1.61,0,0,0,.47,1.83,2.75,2.75,0,0,0,1.55.57l1.95.17a1.46,1.46,0,0,0,.8-.13l.85-.42a5.13,5.13,0,0,0,1.52-1.08,7.53,7.53,0,0,1,1.58-1.35,6.07,6.07,0,0,0,1.86-1.88,9.93,9.93,0,0,0,1.55-4.69,2.33,2.33,0,0,0-.89-2.11c-.4-.33-.8-.66-1.17-1A4.9,4.9,0,0,0,16.5,33.13Z"/></svg>