<svg id="Layer_1" data-name="Layer 1" xmlns="http://www.w3.org/2000/svg" viewBox="0 0 256 256"><title>bb-logo</title><path d="M.68,196.07a48.52,48.52,0,0,1,.51-8.93c.1-.54.22-1.09.33-1.63a8.72,8.72,0,0,0-.09-3.45,19.81,19.81,0,0,1,.71-8.95,48.73,48.73,0,0,0,1.7-14.86A27.56,27.56,0,0,0,3.23,153a12.67,12.67,0,0,1,.27-6.38A129.36,129.36,0,0,0,7,128.77c.5-3.89,1-7.78,1.46-11.68a35.48,35.48,0,0,0,0-7.5,20,20,0,0,1,1.11-8.87A18,18,0,0,0,10.64,95c.19-5.43.64-10.84,1-16.26.28-3.74.53-7.49.63-11.24.16-5.59-.07-11.17-.24-16.75-.07-2.16-.22-4.32-.13-6.47A70.93,70.93,0,0,1,13,34.61a27,27,0,0,0,.5-4,7.93,7.93,0,0,1,2.14-5.23A17.2,17.2,0,0,1,26,19.65a12.57,12.57,0,0,1,10.72,2.93,15.09,15.09,0,0,1,4.39,7.33,44.54,44.54,0,0,1,1.63,9.37c.16,2.07.29,4.15.44,6.22a5.17,5.17,0,0,1-.24,2A33,33,0,0,0,41.57,59c.16,4.76.83,9.47,1.21,14.21.16,1.92.43,3.83.55,5.75A37.51,37.51,0,0,1,43,85a44.36,44.36,0,0,0,0,7.38c.24,3.33.88,6.6,1.36,9.89a11.24,11.24,0,0,1-.63,6,14.15,14.15,0,0,0-.74,6.54c.06.84.17,1.68.27,2.52a3.65,3.65,0,0,0,.78,1.84A10.29,10.29,0,0,0,47.54,122a4.75,4.75,0,0,0,3.82-.06A76,76,0,0,1,61,119.31a68.24,68.24,0,0,1,17.35-1.25,39.85,39.85,0,0,1,9.37,1.21c2.77.83,5.65,1,8.44,1.6a22.92,22.92,0,0,1,15,10.24,49.26,49.26,0,0,0,7,9,18.25,18.25,0,0,0,2.68,2.28,2.84,2.84,0,0,0,3.85-.2,8.71,8.71,0,0,0,3.06-5.09c1.13-4.93,2.16-9.89,3.58-14.75a30.51,30.51,0,0,0,1.32-5.43c.16-1.53.17-3.08.32-4.61.19-2-.36-4-.27-6a13.57,13.57,0,0,1,1.11-5.28,5.86,5.86,0,0,0,.52-3.24,31.16,31.16,0,0,1,1.21-11.48c.61-2.12,1.5-4.16,2-6.33a20.6,20.6,0,0,0,.06-9.11,9,9,0,0,1,.32-4.16,5.29,5.29,0,0,0-.17-3.31A13.22,13.22,0,0,1,137,58a22.11,22.11,0,0,0-.59-7.38,5.34,5.34,0,0,1,0-2.07,33.32,33.32,0,0,0-.91-12.13c-1.26-4.23,0-7.94,2.73-11.21a19.43,19.43,0,0,1,7.57-5.56,17.45,17.45,0,0,1,3.46-1.26,8.71,8.71,0,0,1,7.12,1.93,12.13,12.13,0,0,1,4.51,6.74,52.62,52.62,0,0,1,1.72,8.53,31.08,31.08,0,0,1-.53,8.5,23.09,23.09,0,0,0,.31,11.26,9.13,9.13,0,0,1-.14,6.12,3.72,3.72,0,0,0,.27,3.28,3.61,3.61,0,0,1,.4,2.67,30.57,30.57,0,0,0-.5,8.8c.22,3.73.75,7.44.73,11.18,0,2.23-.35,4.45-.48,6.68-.16,2.67-.33,5.35-.3,8a87.34,87.34,0,0,1-.79,12.21,30.32,30.32,0,0,0-.15,8.24,7.23,7.23,0,0,0,1.62,4,5.9,5.9,0,0,0,5.06,1.73,34.28,34.28,0,0,0,9.45-2.29,60.65,60.65,0,0,1,7.94-2.43,14.64,14.64,0,0,1,3.62-.16c2.68.14,5.35.32,8,.43a63.3,63.3,0,0,1,15.7,2.46c2.57.78,5.22,1.3,7.83,2A24.07,24.07,0,0,1,231.18,134a85.09,85.09,0,0,1,11.19,11.74,65.7,65.7,0,0,1,9.57,18,18.52,18.52,0,0,0,1.55,3.35c2.37,4,2.43,8.27,1.27,12.62a34.18,34.18,0,0,1-5.06,10.14,80.22,80.22,0,0,0-5.2,8,35.14,35.14,0,0,0-3.5,9.74,15.8,15.8,0,0,1-2.82,6.57,17.2,17.2,0,0,1-3.31,3.45,121.32,121.32,0,0,1-11.53,8.11,33.07,33.07,0,0,1-10.63,4.21c-1.92.38-3.72,1.21-5.61,1.76a17.88,17.88,0,0,1-13.2-1.09,7.71,7.71,0,0,0-3.47-.67,42.15,42.15,0,0,1-7.82-1.06c-3.1-.63-6.21-1.12-9.35-1.45a36.86,36.86,0,0,1-10.38-2.83,18.66,18.66,0,0,0-5.11-1.56,4.33,4.33,0,0,0-3.89,1.46,15.52,15.52,0,0,0-2.41,4.12c-.17.39-.32.79-.5,1.17-1.56,3.34-4.32,4.94-7.85,5.41a2.78,2.78,0,0,1-1.74-.33c-3.15-1.81-6.46-3.35-9.55-5.27a36.68,36.68,0,0,1-3.18-2.2,5,5,0,0,1-1.81-2.35c-.81-2.5-2-4.82-3-7.25a13,13,0,0,1-1-5.29,7.52,7.52,0,0,1,.23-1.83,3.47,3.47,0,0,0-.11-2,35,35,0,0,1-1.84-11.75,31.83,31.83,0,0,1,.4-4.25,3.37,3.37,0,0,0,.09-1.14,1.41,1.41,0,0,0-2.07-1,2.67,2.67,0,0,0-.81.65,113.66,113.66,0,0,1-10.77,10.62,61.42,61.42,0,0,0-9.6,10.45c-.53.77-1,1.57-1.5,2.39a8.06,8.06,0,0,1-3.93,3.61,104.88,104.88,0,0,1-11.37,4.36,25.88,25.88,0,0,1-5.73,1,2.88,2.88,0,0,0-1.8.67,6,6,0,0,1-6.62,1l-.27-.12a39,39,0,0,0-6.85-2.82,33.82,33.82,0,0,1-11.91-8.17,5.14,5.14,0,0,0-2.2-1.45,4.8,4.8,0,0,0-3.53.37,12.75,12.75,0,0,0-5.05,3.74,14.61,14.61,0,0,1-5.44,3.92c-1.5.77-3,1.55-4.45,2.45A12.19,12.19,0,0,1,23,224.53a12.14,12.14,0,0,1-3.56.16A6.43,6.43,0,0,1,14.87,222c-1.54-2.05-3-4.15-4.72-6.06a27.36,27.36,0,0,0-4.07-3.84,12.94,12.94,0,0,1-5-8.42A40.38,40.38,0,0,1,.68,196.07Zm224.4-26.38a26.32,26.32,0,0,0-.64-5.35,6.2,6.2,0,0,0-1.54-3.42,57.91,57.91,0,0,1-7.17-9.1c-3.27-4.82-7.8-7.52-13.77-7.35a44.35,44.35,0,0,1-4.89-.24,12.87,12.87,0,0,0-10.53,3.43,30.06,30.06,0,0,0-5,6.68,10.16,10.16,0,0,0-1.25,3.27,16.2,16.2,0,0,1-.94,3.21,28.68,28.68,0,0,0-1.14,3,23.43,23.43,0,0,1-2.95,6.23,19.61,19.61,0,0,0-2.83,6.65A68.78,68.78,0,0,1,169,187.19a31.7,31.7,0,0,0-1.89,6.05,4.4,4.4,0,0,0,2.42,4.91,10,10,0,0,0,2.25.89c3.17.81,6.33,1.65,9.51,2.41a32.11,32.11,0,0,0,8.23,1c2.39-.07,4.76-.38,7.13-.66a18,18,0,0,0,5.4-1.39,9.92,9.92,0,0,1,3.15-.87,5.08,5.08,0,0,0,3.45-1.78c1.59-1.83,3.36-3.5,5.09-5.2a51.88,51.88,0,0,0,5.93-6.55A26.61,26.61,0,0,0,225.08,169.69Zm-158.53-35c-.15,0-.3,0-.46,0a11,11,0,0,0-7.88,3.83c-1.76,2.09-3.49,4.22-5.19,6.36a26.74,26.74,0,0,0-5.24,9.36c-.92,3.39-2.14,6.67-3.32,10a27.13,27.13,0,0,0-1.7,7.11,35,35,0,0,1-1.68,9.11A6.45,6.45,0,0,0,43,187.75,10.73,10.73,0,0,0,49.23,190c2.59.24,5.18.45,7.77.67a5.84,5.84,0,0,0,3.21-.5l3.4-1.7a20.28,20.28,0,0,0,6.09-4.32,29.07,29.07,0,0,1,6.31-5.4,24.37,24.37,0,0,0,7.46-7.53,39.45,39.45,0,0,0,6.2-18.76A9.33,9.33,0,0,0,86.11,144c-1.61-1.32-3.21-2.66-4.68-4.12C77.29,135.8,72.14,134.61,66.55,134.68Z"/></svg>