<svg id="Layer_1" data-name="Layer 1" xmlns="http://www.w3.org/2000/svg" viewBox="0 0 32.03 32.39"><title>bb-logo</title><path d="M.22,25.22A6,6,0,0,1,.29,24.1a1.77,1.77,0,0,1,0-.2,1.24,1.24,0,0,0,0-.43,2.5,2.5,0,0,1,.09-1.12A6.08,6.08,0,0,0,.62,20.5a3.5,3.5,0,0,0-.08-.65,1.56,1.56,0,0,1,0-.8A16.88,16.88,0,0,0,1,16.82c.06-.49.13-1,.18-1.46a4.22,4.22,0,0,0,0-.94,2.55,2.55,0,0,1,.14-1.1,2.3,2.3,0,0,0,.14-.72c0-.68.08-1.36.13-2,0-.47.06-.94.08-1.4,0-.7,0-1.4,0-2.1,0-.27,0-.53,0-.8a8.15,8.15,0,0,1,.14-1.21c0-.16.05-.33.06-.5a1,1,0,0,1,.26-.65,2.13,2.13,0,0,1,1.3-.71,1.56,1.56,0,0,1,1.33.36,1.83,1.83,0,0,1,.55.92,5.13,5.13,0,0,1,.21,1.17c0,.26,0,.51,0,.77a.52.52,0,0,1,0,.25,4.13,4.13,0,0,0-.17,1.44c0,.59.1,1.18.15,1.77,0,.24,0,.48.07.72a6.3,6.3,0,0,1,0,.75,5.65,5.65,0,0,0,0,.92c0,.42.11.82.17,1.23a1.4,1.4,0,0,1-.08.76,1.71,1.71,0,0,0-.09.81c0,.11,0,.21,0,.32a.43.43,0,0,0,.1.23,1.39,1.39,0,0,0,.44.36.62.62,0,0,0,.48,0,8.19,8.19,0,0,1,1.2-.33,8.3,8.3,0,0,1,2.17-.16,5.05,5.05,0,0,1,1.16.15c.35.11.71.12,1.06.2A2.88,2.88,0,0,1,14,17.11a6.8,6.8,0,0,0,.87,1.13,2.3,2.3,0,0,0,.34.28.35.35,0,0,0,.48,0,1.12,1.12,0,0,0,.38-.63c.14-.62.27-1.23.45-1.84a4,4,0,0,0,.16-.68c0-.19,0-.38,0-.57s0-.5,0-.75a1.66,1.66,0,0,1,.14-.66A.71.71,0,0,0,16.9,13a3.86,3.86,0,0,1,.15-1.43c.08-.26.19-.52.25-.79a2.58,2.58,0,0,0,0-1.14,1.1,1.1,0,0,1,0-.51.61.61,0,0,0,0-.42A1.51,1.51,0,0,1,17.24,8a2.59,2.59,0,0,0-.08-.92,1.13,1.13,0,0,1,0-.26,4.11,4.11,0,0,0-.11-1.52,1.42,1.42,0,0,1,.34-1.4,2.47,2.47,0,0,1,.94-.69A2.32,2.32,0,0,1,18.77,3a1.11,1.11,0,0,1,.89.24,1.54,1.54,0,0,1,.56.85,6.41,6.41,0,0,1,.21,1.06,4.17,4.17,0,0,1-.06,1.06,2.81,2.81,0,0,0,0,1.41,1.17,1.17,0,0,1,0,.76.46.46,0,0,0,0,.41.42.42,0,0,1,0,.33,4.07,4.07,0,0,0-.06,1.1c0,.47.09.93.09,1.4,0,.28,0,.55-.06.83s0,.67,0,1A11.22,11.22,0,0,1,20.31,15a3.49,3.49,0,0,0,0,1,.82.82,0,0,0,.2.5.74.74,0,0,0,.63.22,4,4,0,0,0,1.18-.29,8.67,8.67,0,0,1,1-.3,1.7,1.7,0,0,1,.45,0l1,.05a8.1,8.1,0,0,1,2,.31c.32.1.66.16,1,.24a3.16,3.16,0,0,1,1.32.72,10.75,10.75,0,0,1,1.39,1.47,7.94,7.94,0,0,1,1.2,2.24,2,2,0,0,0,.19.42,1.92,1.92,0,0,1,.16,1.57,4.31,4.31,0,0,1-.63,1.27,9.51,9.51,0,0,0-.65,1,4.28,4.28,0,0,0-.44,1.21,1.88,1.88,0,0,1-.35.82,2.09,2.09,0,0,1-.41.43,15.55,15.55,0,0,1-1.44,1,4,4,0,0,1-1.33.53c-.24,0-.46.15-.7.22a2.25,2.25,0,0,1-1.65-.14,1.06,1.06,0,0,0-.43-.08,5.49,5.49,0,0,1-1-.13,11.19,11.19,0,0,0-1.16-.18,4.58,4.58,0,0,1-1.3-.36,2.36,2.36,0,0,0-.64-.19.54.54,0,0,0-.48.18,1.68,1.68,0,0,0-.3.52s0,.09-.07.14a1.16,1.16,0,0,1-1,.68.38.38,0,0,1-.21,0c-.4-.23-.81-.42-1.2-.66l-.39-.28a.65.65,0,0,1-.23-.29c-.1-.31-.25-.6-.37-.91a1.5,1.5,0,0,1-.13-.66.83.83,0,0,1,0-.22.57.57,0,0,0,0-.26,4,4,0,0,1-.23-1.47,3.27,3.27,0,0,1,.05-.53.61.61,0,0,0,0-.14.19.19,0,0,0-.26-.13.39.39,0,0,0-.1.08,14.12,14.12,0,0,1-1.35,1.33,8.23,8.23,0,0,0-1.2,1.3l-.18.3a1,1,0,0,1-.49.45,12.25,12.25,0,0,1-1.42.55,2.93,2.93,0,0,1-.72.12.36.36,0,0,0-.22.09.75.75,0,0,1-.83.12h0a5.35,5.35,0,0,0-.86-.35,4.35,4.35,0,0,1-1.49-1,.56.56,0,0,0-.27-.18.61.61,0,0,0-.44,0,1.71,1.71,0,0,0-.63.47,1.85,1.85,0,0,1-.68.49,6,6,0,0,0-.55.31,1.54,1.54,0,0,1-.59.17,1.7,1.7,0,0,1-.45,0A.86.86,0,0,1,2,28.46c-.19-.26-.37-.52-.58-.76a3.86,3.86,0,0,0-.51-.48,1.65,1.65,0,0,1-.63-1A5,5,0,0,1,.22,25.22Zm28-3.3a3.56,3.56,0,0,0-.08-.66.86.86,0,0,0-.2-.43,7.11,7.11,0,0,1-.89-1.14,1.93,1.93,0,0,0-1.72-.91c-.21,0-.41,0-.61,0a1.61,1.61,0,0,0-1.32.43,3.6,3.6,0,0,0-.62.83,1.21,1.21,0,0,0-.16.41,1.42,1.42,0,0,1-.12.4c0,.12-.1.24-.14.37A2.93,2.93,0,0,1,22,22a2.36,2.36,0,0,0-.35.83,10,10,0,0,1-.42,1.31,3.44,3.44,0,0,0-.24.75.56.56,0,0,0,.3.62,1.36,1.36,0,0,0,.28.11c.4.1.79.21,1.19.3a4,4,0,0,0,1,.12c.29,0,.59-.05.89-.08a2.22,2.22,0,0,0,.67-.18,1.4,1.4,0,0,1,.39-.1.6.6,0,0,0,.43-.23c.2-.23.42-.43.64-.65a6.35,6.35,0,0,0,.74-.81A3.38,3.38,0,0,0,28.24,21.92ZM8.45,17.55H8.39a1.35,1.35,0,0,0-1,.47c-.22.26-.44.53-.65.8A3.31,3.31,0,0,0,6.1,20c-.11.42-.26.83-.41,1.24a3,3,0,0,0-.21.89,4.42,4.42,0,0,1-.21,1.13.81.81,0,0,0,.23.92,1.33,1.33,0,0,0,.78.28l1,.09a.68.68,0,0,0,.4-.07l.43-.21a2.4,2.4,0,0,0,.76-.54,3.38,3.38,0,0,1,.79-.67,3.2,3.2,0,0,0,.93-.94,5,5,0,0,0,.77-2.34,1.17,1.17,0,0,0-.44-1.06c-.2-.16-.4-.33-.59-.51A2.48,2.48,0,0,0,8.45,17.55Z"/></svg>